<svg width="22" height="22" viewBox="0 0 22 22" fill="none" xmlns="http://www.w3.org/2000/svg">
<path d="M5.99995 15C5.01497 15.0011 4.06421 14.6388 3.32982 13.9823C2.59544 13.3259 2.12907 12.4216 2.02006 11.4427C1.91106 10.4638 2.16708 9.47902 2.73909 8.67714C3.31109 7.87526 4.15885 7.31263 5.11995 7.09703C4.84187 5.80012 5.09038 4.44586 5.8108 3.33218C6.53122 2.21849 7.66454 1.43661 8.96145 1.15853C10.2584 0.880448 11.6126 1.12895 12.7263 1.84937C13.84 2.56979 14.6219 3.70312 14.9 5.00003H15C16.2399 4.99878 17.4361 5.45831 18.3563 6.2894C19.2765 7.12049 19.8551 8.26386 19.9797 9.49753C20.1043 10.7312 19.766 11.9672 19.0306 12.9655C18.2952 13.9638 17.2151 14.6533 16 14.9M7.99995 18L11 21M11 21L14 18M11 21V9.00003" stroke="black" stroke-width="2" stroke-linecap="round" stroke-linejoin="round"/>
</svg>
