<svg width="18" height="22" viewBox="0 0 18 22" fill="none" xmlns="http://www.w3.org/2000/svg">
<path d="M16 5.33333L15.133 18.4872C15.0971 19.0338 14.8713 19.5454 14.5011 19.9189C14.1309 20.2924 13.6439 20.5 13.138 20.5H4.862C4.35614 20.5 3.86907 20.2924 3.49889 19.9189C3.1287 19.5454 2.90292 19.0338 2.867 18.4872L2 5.33333M7 9.66667V16.1667M11 9.66667V16.1667M12 5.33333V2.08333C12 1.79602 11.8946 1.52047 11.7071 1.3173C11.5196 1.11414 11.2652 1 11 1H7C6.73478 1 6.48043 1.11414 6.29289 1.3173C6.10536 1.52047 6 1.79602 6 2.08333V5.33333M1 5.33333H17" stroke="white" stroke-width="2" stroke-linecap="round" stroke-linejoin="round"/>
</svg>
