<svg width="18" height="4" viewBox="0 0 18 4" fill="none" xmlns="http://www.w3.org/2000/svg">
<path d="M2 2H2.01M9 2H9.01M16 2H16.01M3 2C3 2.26522 2.89464 2.51957 2.70711 2.70711C2.51957 2.89464 2.26522 3 2 3C1.73478 3 1.48043 2.89464 1.29289 2.70711C1.10536 2.51957 1 2.26522 1 2C1 1.73478 1.10536 1.48043 1.29289 1.29289C1.48043 1.10536 1.73478 1 2 1C2.26522 1 2.51957 1.10536 2.70711 1.29289C2.89464 1.48043 3 1.73478 3 2V2ZM9 2C9 2.26522 8.89464 2.51957 8.70711 2.70711C8.51957 2.89464 8.26522 3 8 3C7.73478 3 7.48043 2.89464 7.29289 2.70711C7.10536 2.51957 7 2.26522 7 2C7 1.73478 7.10536 1.48043 7.29289 1.29289C7.48043 1.10536 7.73478 1 8 1C8.26522 1 8.51957 1.10536 8.70711 1.29289C8.89464 1.48043 9 1.73478 9 2V2ZM16 2C16 2.26522 15.8946 2.51957 15.7071 2.70711C15.5196 2.89464 15.2652 3 15 3C14.7348 3 14.4804 2.89464 14.2929 2.70711C14.1054 2.51957 14 2.26522 14 2C14 1.73478 14.1054 1.48043 14.2929 1.29289C14.4804 1.10536 14.7348 1 15 1C15.2652 1 15.5196 1.10536 15.7071 1.29289C15.8946 1.48043 16 1.73478 16 2V2Z" stroke="black" stroke-width="2" stroke-linecap="round" stroke-linejoin="round"/>
</svg>
